<?xml version="1.0" encoding="UTF-8" standalone="no"?>
<!-- Created with Inkscape (http://www.inkscape.org/) -->

<svg
   xmlns:dc="http://purl.org/dc/elements/1.1/"
   xmlns:cc="http://creativecommons.org/ns#"
   xmlns:rdf="http://www.w3.org/1999/02/22-rdf-syntax-ns#"
   xmlns:svg="http://www.w3.org/2000/svg"
   xmlns="http://www.w3.org/2000/svg"
   xmlns:sodipodi="http://sodipodi.sourceforge.net/DTD/sodipodi-0.dtd"
   xmlns:inkscape="http://www.inkscape.org/namespaces/inkscape"
   width="210mm"
   height="297mm"
   viewBox="0 0 210 297"
   version="1.1"
   id="svg8"
   inkscape:version="0.92.4 (5da689c313, 2019-01-14)"
   sodipodi:docname="logo.svg"
   inkscape:export-filename="C:\git\sourcegen\sourcegen\logo_sm.png"
   inkscape:export-xdpi="9.7513285"
   inkscape:export-ydpi="9.7513285">
  <defs
     id="defs2" />
  <sodipodi:namedview
     id="base"
     pagecolor="#ffffff"
     bordercolor="#666666"
     borderopacity="1.0"
     inkscape:pageopacity="0.0"
     inkscape:pageshadow="2"
     inkscape:zoom="1.32"
     inkscape:cx="440.57451"
     inkscape:cy="863.90154"
     inkscape:document-units="mm"
     inkscape:current-layer="layer1"
     showgrid="false"
     inkscape:snap-global="false"
     inkscape:window-width="1502"
     inkscape:window-height="777"
     inkscape:window-x="640"
     inkscape:window-y="186"
     inkscape:window-maximized="0">
    <inkscape:grid
       type="xygrid"
       id="grid4528" />
  </sodipodi:namedview>
  <metadata
     id="metadata5">
    <rdf:RDF>
      <cc:Work
         rdf:about="">
        <dc:format>image/svg+xml</dc:format>
        <dc:type
           rdf:resource="http://purl.org/dc/dcmitype/StillImage" />
        <dc:title></dc:title>
      </cc:Work>
    </rdf:RDF>
  </metadata>
  <g
     inkscape:label="Layer 1"
     inkscape:groupmode="layer"
     id="layer1">
    <path
       style="fill:#ffd7c3;stroke:#000000;stroke-width:0.26458332px;stroke-linecap:butt;stroke-linejoin:miter;stroke-opacity:1;fill-opacity:1"
       d="m 55.321969,110.18813 -7.41635,0.20044 V 40.233901 l 6.815024,-1.603536 3.006629,2.605746 1.603534,1.803977 2.80619,-5.812817 -0.601327,-6.614583 53.718431,-0.20044 1.60354,3.20707 -0.20044,75.767042 -1.80398,1.20265 z"
       id="path4657"
       inkscape:connector-curvature="0" />
    <flowRoot
       xml:space="preserve"
       id="flowRoot4520"
       style="fill:black;fill-opacity:1;stroke:none;font-family:'Adobe Fangsong Std';font-style:normal;font-weight:normal;font-size:40px;line-height:1.25;letter-spacing:0px;word-spacing:0px;-inkscape-font-specification:'Adobe Fangsong Std';font-stretch:normal;font-variant:normal;"><flowRegion
         id="flowRegion4522"
         style="-inkscape-font-specification:'Adobe Fangsong Std';font-family:'Adobe Fangsong Std';font-weight:normal;font-style:normal;font-stretch:normal;font-variant:normal;"><rect
           id="rect4524"
           width="219.63165"
           height="193.91867"
           x="519.61633"
           y="134.71294"
           style="-inkscape-font-specification:'Adobe Fangsong Std';font-family:'Adobe Fangsong Std';font-weight:normal;font-style:normal;font-stretch:normal;font-variant:normal;" /></flowRegion><flowPara
         id="flowPara4526"></flowPara></flowRoot>    <path
       style="fill:none;stroke:#d04900;stroke-width:3.48411989;stroke-linecap:butt;stroke-linejoin:miter;stroke-miterlimit:4;stroke-dasharray:none;stroke-opacity:1"
       d="m 65.590525,69.96126 c 0,0 7.924396,-4.615922 5.282928,-9.924229 -2.641469,-5.30831 -8.980981,-7.385473 -8.452685,-11.770599 0.528289,-4.385124 6.867811,-9.924229 6.867811,-9.924229"
       id="path4564"
       inkscape:connector-curvature="0" />
    <path
       inkscape:connector-curvature="0"
       id="path4566"
       d="m 79.785794,69.96126 c 0,0 7.924395,-4.615922 5.282927,-9.924229 -2.641468,-5.30831 -8.980981,-7.385473 -8.452683,-11.770599 0.528288,-4.385124 6.86781,-9.924229 6.86781,-9.924229"
       style="fill:none;stroke:#d04900;stroke-width:3.48411989;stroke-linecap:butt;stroke-linejoin:miter;stroke-miterlimit:4;stroke-dasharray:none;stroke-opacity:1" />
    <path
       style="fill:none;stroke:#d04900;stroke-width:3.48411989;stroke-linecap:butt;stroke-linejoin:miter;stroke-miterlimit:4;stroke-dasharray:none;stroke-opacity:1"
       d="m 93.047164,69.96126 c 0,0 7.924396,-4.615922 5.282927,-9.924229 -2.641468,-5.30831 -8.980981,-7.385473 -8.452684,-11.770599 0.528289,-4.385124 6.867811,-9.924229 6.867811,-9.924229"
       id="path4568"
       inkscape:connector-curvature="0" />
    <path
       style="fill:#db8e93;fill-opacity:1;stroke:#17181a;stroke-width:2.88472319;stroke-miterlimit:4;stroke-dasharray:none;stroke-opacity:1"
       d="m 53.751879,78.048515 a 28.651403,24.27248 0 0 0 -0.0056,0.100138 28.651403,24.27248 0 0 0 28.651239,24.272687 28.651403,24.27248 0 0 0 28.651222,-24.272687 28.651403,24.27248 0 0 0 -0.005,-0.100138 z"
       id="ellipse4570"
       inkscape:connector-curvature="0" />
    <ellipse
       style="fill:#db8e93;fill-opacity:1;stroke:#17181a;stroke-width:2.75680971;stroke-miterlimit:4;stroke-dasharray:none;stroke-opacity:1"
       id="path4562"
       cx="82.586525"
       cy="77.57753"
       rx="28.791969"
       ry="2.7695527" />
    <path
       inkscape:connector-curvature="0"
       style="color:#000000;font-style:normal;font-variant:normal;font-weight:normal;font-stretch:normal;font-size:medium;line-height:normal;font-family:sans-serif;font-variant-ligatures:normal;font-variant-position:normal;font-variant-caps:normal;font-variant-numeric:normal;font-variant-alternates:normal;font-feature-settings:normal;text-indent:0;text-align:start;text-decoration:none;text-decoration-line:none;text-decoration-style:solid;text-decoration-color:#000000;letter-spacing:normal;word-spacing:normal;text-transform:none;writing-mode:lr-tb;direction:ltr;text-orientation:mixed;dominant-baseline:auto;baseline-shift:baseline;text-anchor:start;white-space:normal;shape-padding:0;clip-rule:nonzero;display:inline;overflow:visible;visibility:visible;opacity:1;isolation:auto;mix-blend-mode:normal;color-interpolation:sRGB;color-interpolation-filters:linearRGB;solid-color:#000000;solid-opacity:1;vector-effect:none;fill:#17181a;fill-opacity:1;fill-rule:nonzero;stroke:none;stroke-width:3.12275481;stroke-linecap:butt;stroke-linejoin:miter;stroke-miterlimit:4;stroke-dasharray:none;stroke-dashoffset:0;stroke-opacity:1;color-rendering:auto;image-rendering:auto;shape-rendering:auto;text-rendering:auto;enable-background:accumulate"
       d="m 61.750434,28.669072 -4.752616,3.205571 c 0.179287,0.02035 0.349632,0.03743 0.536192,0.06053 a 1.6373256,1.430601 0 0 0 0.138002,0.0124 c 2.340666,0.114561 2.974957,0.661706 3.327321,1.377834 0.352363,0.716129 0.28177,2.012593 -0.207822,3.433382 -0.436155,1.265721 -1.154572,2.505473 -1.802209,3.557773 -1.155176,-1.154699 -2.997107,-2.236514 -6.401003,-2.883869 -1.192397,-0.226772 -2.267094,-0.126415 -3.195318,0.171572 v -0.60003 l -3.56787,2.406322 c 0.06861,1.129238 0.125001,2.319704 0.102,3.640224 h 0.0044 c 5.58e-4,0.0085 -0.0022,0.102467 -0.0022,0.102467 a 1.6373256,1.430601 0 0 0 0.12382,0.46468 v 64.737162 c 0,1.90986 1.811319,3.49248 3.997149,3.49248 h 64.16331 c 2.18583,0 3.99715,-1.58263 3.99715,-3.49248 V 32.162028 c 0,-1.909846 -1.81132,-3.492956 -3.99715,-3.492956 z m 1.888391,2.920089 h 50.574745 c 0.39285,0 0.65728,0.229629 0.65728,0.572867 v 76.193052 c 0,0.34323 -0.26443,0.57477 -0.65728,0.57477 H 50.050262 c -0.392825,0 -0.657281,-0.23154 -0.657281,-0.57477 V 41.545684 c 0.04155,-0.14295 0.08849,-0.285123 0.150003,-0.418927 0.18289,-0.397837 0.414407,-0.663045 0.694919,-0.810209 0.280508,-0.147164 0.699124,-0.271539 1.653296,-0.09008 3.456724,0.657401 4.638168,1.640969 5.055346,2.20663 0.208589,0.282829 0.25343,0.489471 0.267824,0.615757 0.0071,0.06188 0.01134,0.074 0.01419,0.07197 a 1.6373256,1.430601 0 0 0 2.946041,1.118564 c 0,0 2.553311,-3.176347 3.752238,-6.655632 0.599465,-1.739644 0.943596,-3.635673 0.08073,-5.389324 -0.103397,-0.210144 -0.22741,-0.411933 -0.368732,-0.605274 z"
       id="rect3713" />
    <path
       style="fill:none;stroke:#17181a;stroke-width:3.12275457;stroke-linecap:butt;stroke-linejoin:miter;stroke-miterlimit:4;stroke-dasharray:none;stroke-opacity:1"
       d="M 62.495881,29.965816 C 55.656789,32.39962 50.930461,34.980124 47.273577,40.194358"
       id="path4630"
       inkscape:connector-curvature="0"
       sodipodi:nodetypes="cc" />
  </g>
</svg>
